<svg width="159" height="113" viewBox="0 0 159 113" fill="none" xmlns="http://www.w3.org/2000/svg">
<path d="M1 24C1 18.3149 1.00212 14.1516 1.43042 10.966C1.85485 7.80911 2.68124 5.76242 4.22183 4.22183C5.76242 2.68124 7.80911 1.85485 10.966 1.43042C14.1516 1.00212 18.3149 1 24 1H135C140.685 1 144.848 1.00212 148.034 1.43042C151.191 1.85485 153.238 2.68124 154.778 4.22182C156.319 5.76242 157.145 7.80911 157.57 10.966C157.998 14.1516 158 18.3149 158 24V88.4309C158 94.1161 157.998 98.2793 157.57 101.465C157.145 104.622 156.319 106.669 154.778 108.209C153.238 109.75 151.191 110.576 148.034 111.001C144.848 111.429 140.685 111.431 135 111.431H24C18.3149 111.431 14.1516 111.429 10.966 111.001C7.80911 110.576 5.76242 109.75 4.22183 108.209C2.68124 106.669 1.85485 104.622 1.43042 101.465C1.00212 98.2793 1 94.1161 1 88.431V24Z" fill="#0F1843" stroke="#509624" stroke-width="2"/>
</svg>
