<svg width="62" height="63" viewBox="0 0 62 63" fill="none" xmlns="http://www.w3.org/2000/svg">
<g clip-path="url(#clip0_1_314)">
<path fill-rule="evenodd" clip-rule="evenodd" d="M0 0.5V62.5H62V0.5H0ZM52.4362 14.219L45.1518 49.2573C44.9803 50.0846 44.0102 50.4595 43.3257 49.9621L33.3819 42.7427C32.7782 42.3044 31.9551 42.3277 31.3772 42.7989L25.8639 47.293C25.2242 47.8162 24.26 47.5246 24.015 46.7366L20.1868 34.425L10.2964 30.7338C9.29169 30.3574 9.2831 28.9391 10.2849 28.5532L50.8754 12.8944C51.7359 12.5617 52.6237 13.3155 52.4362 14.219Z" fill="white"/>
<path fill-rule="evenodd" clip-rule="evenodd" d="M42.7278 20.5554L23.3982 32.4603C22.6574 32.9175 22.3087 33.8122 22.5477 34.6498L24.6376 41.9932C24.7862 42.5135 25.5411 42.4603 25.6135 41.9228L26.1566 37.8958C26.2592 37.1376 26.6207 36.4387 27.1816 35.9169L43.1339 21.0884C43.4326 20.8118 43.075 20.3421 42.7278 20.5554Z" fill="white"/>
</g>
<defs>
<clipPath id="clip0_1_314">
<rect width="62" height="62" fill="white" transform="translate(0 0.5)"/>
</clipPath>
</defs>
</svg>
