<svg width="72" height="72" viewBox="0 0 72 72" fill="none" xmlns="http://www.w3.org/2000/svg">
<path d="M22.7638 64.8573C49.6044 64.8573 64.2853 42.6195 64.2853 23.3358C64.2853 22.7044 64.2853 22.0753 64.2426 21.4494C67.0988 19.3835 69.5637 16.826 71.5229 13.8956C68.8596 15.0755 66.0342 15.85 63.1409 16.1914C66.1875 14.3674 68.4676 11.4993 69.5566 8.11995C66.6917 9.81991 63.5582 11.018 60.2902 11.6621C54.7636 5.78536 45.5193 5.50164 39.6425 11.0283C35.8522 14.5926 34.2447 19.9035 35.4207 24.9718C23.6885 24.383 12.7561 18.8413 5.34612 9.72428C1.4728 16.3921 3.45095 24.9228 9.86433 29.2047C7.5416 29.1359 5.27025 28.5092 3.24072 27.3783C3.24072 27.4383 3.24072 27.5008 3.24072 27.5632C3.2423 34.5101 8.13908 40.4927 14.9484 41.8687C12.8003 42.4543 10.5456 42.5404 8.35879 42.1192C10.2706 48.0639 15.749 52.1364 21.9925 52.2534C16.8246 56.3148 10.4413 58.519 3.86902 58.5126C2.70805 58.5103 1.54867 58.4399 0.395599 58.3016C7.069 62.5843 14.8346 64.8557 22.7638 64.8454" fill="white"/>
</svg>
